<svg width="1920" height="600" xmlns="http://www.w3.org/2000/svg">
  <defs>
    <linearGradient id="bgGrad" x1="0%" y1="0%" x2="100%" y2="100%">
      <stop offset="0%" style="stop-color:#0f172a;stop-opacity:1" />
      <stop offset="100%" style="stop-color:#1e293b;stop-opacity:1" />
    </linearGradient>
    <pattern id="dots" width="30" height="30" patternUnits="userSpaceOnUse">
      <circle cx="15" cy="15" r="1.5" fill="rgba(74, 158, 255, 0.15)"/>
    </pattern>
    <radialGradient id="centerGlow" cx="50%" cy="50%">
      <stop offset="0%" style="stop-color:#4a9eff;stop-opacity:0.2" />
      <stop offset="100%" style="stop-color:#4a9eff;stop-opacity:0" />
    </radialGradient>
  </defs>
  
  <!-- Base gradient -->
  <rect width="1920" height="600" fill="url(#bgGrad)"/>
  
  <!-- Dot pattern -->
  <rect width="1920" height="600" fill="url(#dots)"/>
  
  <!-- Center glow -->
  <circle cx="960" cy="300" r="500" fill="url(#centerGlow)"/>
  
  <!-- Abstract tech shapes -->
  <rect x="100" y="100" width="150" height="3" fill="rgba(74, 158, 255, 0.3)" rx="1.5"/>
  <rect x="100" y="120" width="100" height="3" fill="rgba(74, 158, 255, 0.2)" rx="1.5"/>
  <rect x="1670" y="400" width="150" height="3" fill="rgba(139, 92, 246, 0.3)" rx="1.5"/>
  <rect x="1720" y="420" width="100" height="3" fill="rgba(139, 92, 246, 0.2)" rx="1.5"/>
  
  <!-- Corner accents -->
  <path d="M 0 0 L 100 0 L 100 3 L 3 3 L 3 100 L 0 100 Z" fill="rgba(74, 158, 255, 0.2)"/>
  <path d="M 1920 600 L 1820 600 L 1820 597 L 1917 597 L 1917 500 L 1920 500 Z" fill="rgba(139, 92, 246, 0.2)"/>
</svg>
